<svg id="Calque_2" data-name="Calque 2" xmlns="http://www.w3.org/2000/svg" viewBox="0 0 745.41 184.82"><defs><style>.cls-1{fill:#26d16c}.cls-2{fill:#2e2e2e}</style></defs><path class="cls-1" d="M551.58 433.68h47.35v-19.51h-50.76v-20.5h44.26v-18.81h-44.26V354.5h49.21v-19.65h-71.26v69.91l6.59 15.84s5.37 13.08 18.87 13.08ZM660.15 424.49v9.19h19.94v-48.5q0-15-8.77-21.91t-22.62-6.93a56.73 56.73 0 0 0-34.22 10.89l9.52 13.71a37.63 37.63 0 0 1 10.39-5.44 34.8 34.8 0 0 1 11.61-2.19q12.87 0 12.87 12.16v.42H643q-14.7 0-23.18 5.8t-8.49 17.46q0 11.66 8.2 18.66a28.27 28.27 0 0 0 11.27 5.87h16.57a26.34 26.34 0 0 0 12.78-9.19Zm-24.39-9.26a7.28 7.28 0 0 1-3-6.29q0-7.92 12.73-7.92h13.29v3.67a11.29 11.29 0 0 1-4.31 9.27 15.47 15.47 0 0 1-10 3.46q-5.66 0-8.71-2.19ZM749.51 425.76l-7.92-14.84q-4.11 5.37-10 5.37a7 7 0 0 1-5.37-2.48 9.74 9.74 0 0 1-2.26-6.85v-34.08h18.34v-15.27h-18.38v-22.76h-21.35v22.76h-8.91v15.27h8.91V408q0 12.44 7.56 19.65a25.42 25.42 0 0 0 10.43 6.08h15.68a34.65 34.65 0 0 0 13.27-7.97Z" transform="translate(-31.79 -311.8)"/><path class="cls-2" d="M62 354.57a8.54 8.54 0 0 0-3.18 6.93 7.82 7.82 0 0 0 3.89 6.86q3.89 2.55 18 6t21.85 10.39q7.77 6.93 7.77 20.22a26.68 26.68 0 0 1-10 21.56q-10 8.26-26.22 8.27-23.47 0-42.28-17.39l13.11-16.11q16 14 29.55 14 6.08 0 9.54-2.62a8.39 8.39 0 0 0 3.47-7.07 8.25 8.25 0 0 0-3.68-7.07q-3.67-2.61-14.56-5.3Q52 389.15 44 382.57t-8-20.64q0-14.07 10.11-21.71t25.24-7.63A60.69 60.69 0 0 1 91.17 336a52.9 52.9 0 0 1 17.25 9.62l-11.17 16.09Q84.4 352 70.67 352q-5.51 0-8.67 2.57ZM192.83 422.65a42.52 42.52 0 0 1-30.19 12.16q-17.32 0-28.63-10.68T122.7 395.5q0-17.94 11.52-28.56a38.91 38.91 0 0 1 27.22-10.6q15.69 0 26.65 9.47t11 26v11.31h-55.46a15.07 15.07 0 0 0 6.5 10.18 20.81 20.81 0 0 0 12.44 4q11.18 0 18.38-7.5Zm-20.36-45.1a16.06 16.06 0 0 0-10.68-3.68 19.15 19.15 0 0 0-11.52 3.82 14.61 14.61 0 0 0-6.08 10.31h33.37q-.7-6.77-5.09-10.45ZM235.52 433.68h-21.2V328.77h21.2ZM321.49 422.65a42.52 42.52 0 0 1-30.19 12.16q-17.32 0-28.63-10.68t-11.31-28.63q0-17.94 11.52-28.56a38.91 38.91 0 0 1 27.22-10.6q15.69 0 26.65 9.47t11 26v11.31h-55.47a15.12 15.12 0 0 0 6.51 10.18 20.79 20.79 0 0 0 12.44 4q11.16 0 18.38-7.5Zm-20.36-45.1a16.1 16.1 0 0 0-10.68-3.68 19.15 19.15 0 0 0-11.52 3.82 14.61 14.61 0 0 0-6.08 10.31h33.37q-.72-6.77-5.09-10.45ZM379.45 416q10.6 0 19.09-10.61l12.58 14.14q-14.7 15.27-31.81 15.27T350.4 424q-11.81-10.82-11.81-28.27t12-28.42a40.5 40.5 0 0 1 28.35-11 44.23 44.23 0 0 1 16.61 3.39 42.19 42.19 0 0 1 14.78 10l-11 14.42a25.17 25.17 0 0 0-9-6.78 25.42 25.42 0 0 0-10.59-2.34 20.62 20.62 0 0 0-14.35 5.45q-6 5.44-6 15.13t6 15.05a20.38 20.38 0 0 0 14.06 5.37ZM459.36 416.29a7 7 0 0 1-5.37-2.48 9.74 9.74 0 0 1-2.26-6.85v-34.08h17.56l-6.67-15.27h-10.89v-19.44h-21.35v19.44h-8.91v15.27h8.91V408q0 12.44 7.56 19.65a25.82 25.82 0 0 0 18.52 7.21q11 0 20.86-9.05l-7.92-14.84q-4.11 5.32-10.04 5.32Z" transform="translate(-31.79 -311.8)"/><path d="M768.21 418c0 32.55-34.88 32.55-34.88 32.55H552.27c-25.12 0-34.88-20.93-34.88-20.93l-37.94-88.32s-7.11-20.52-24.74-20.52c-17.81 0-94.48.6-94.48.6" transform="translate(-31.79 -311.8)" style="fill:none;stroke:#2e2e2e;stroke-linecap:square;stroke-linejoin:round;stroke-width:18px"/><circle class="cls-2" cx="578.07" cy="482.87" r="13.75" transform="rotate(-67.5 328.854 350.757)"/><circle class="cls-2" cx="711.39" cy="482.87" r="13.75" transform="rotate(-9.22 -1238.125 523.973)"/></svg>