<svg id="Calque_2" data-name="Calque 2" xmlns="http://www.w3.org/2000/svg" viewBox="0 0 745.41 184.82"><path d="M551.58,433.68h47.35V414.17H548.17v-20.5h44.26V374.86H548.17V354.5h49.21V334.85H526.12v69.91l6.59,15.84S538.08,433.68,551.58,433.68Z" transform="translate(-31.79 -311.8)" style="fill:#26d16c"/><path d="M660.15,424.49v9.19h19.94v-48.5q0-15-8.77-21.91t-22.62-6.93a56.73,56.73,0,0,0-34.22,10.89L624,380.94a37.63,37.63,0,0,1,10.39-5.44A34.8,34.8,0,0,1,646,373.31q12.87,0,12.87,12.16v.42H643q-14.7,0-23.18,5.8t-8.49,17.46q0,11.66,8.2,18.66a28.27,28.27,0,0,0,11.27,5.87h16.57A26.34,26.34,0,0,0,660.15,424.49Zm-24.39-9.26a7.28,7.28,0,0,1-3-6.29q0-7.92,12.73-7.92h13.29v3.67a11.29,11.29,0,0,1-4.31,9.27,15.47,15.47,0,0,1-10,3.46Q638.81,417.42,635.76,415.23Z" transform="translate(-31.79 -311.8)" style="fill:#26d16c"/><path d="M749.51,425.76l-7.92-14.84q-4.11,5.37-10,5.37a7,7,0,0,1-5.37-2.48,9.74,9.74,0,0,1-2.26-6.85V372.88H742.3V357.61H723.92V334.85H702.57v22.76h-8.91v15.27h8.91V408q0,12.44,7.56,19.65a25.42,25.42,0,0,0,10.43,6.08h15.68A34.65,34.65,0,0,0,749.51,425.76Z" transform="translate(-31.79 -311.8)" style="fill:#26d16c"/><path d="M62,354.57a8.54,8.54,0,0,0-3.18,6.93,7.82,7.82,0,0,0,3.89,6.86q3.89,2.55,18,6t21.85,10.39q7.77,6.93,7.77,20.22a26.68,26.68,0,0,1-10,21.56q-10,8.26-26.22,8.27-23.47,0-42.28-17.39L44.94,401.3q16,14,29.55,14,6.08,0,9.54-2.62a8.39,8.39,0,0,0,3.47-7.07,8.25,8.25,0,0,0-3.68-7.07q-3.67-2.61-14.56-5.3Q52,389.15,44,382.57t-8-20.64q0-14.07,10.11-21.71t25.24-7.63A60.69,60.69,0,0,1,91.17,336a52.9,52.9,0,0,1,17.25,9.62L97.25,361.71Q84.4,352,70.67,352,65.16,352,62,354.57Z" transform="translate(-31.79 -311.8)" style="fill:#2e2e2e"/><path d="M192.83,422.65a42.52,42.52,0,0,1-30.19,12.16q-17.32,0-28.63-10.68T122.7,395.5q0-17.94,11.52-28.56a38.91,38.91,0,0,1,27.22-10.6q15.69,0,26.65,9.47t11,26v11.31H143.63a15.07,15.07,0,0,0,6.5,10.18,20.81,20.81,0,0,0,12.44,4q11.18,0,18.38-7.5Zm-20.36-45.1a16.06,16.06,0,0,0-10.68-3.68,19.15,19.15,0,0,0-11.52,3.82A14.61,14.61,0,0,0,144.19,388h33.37Q176.86,381.23,172.47,377.55Z" transform="translate(-31.79 -311.8)" style="fill:#2e2e2e"/><path d="M235.52,433.68h-21.2V328.77h21.2Z" transform="translate(-31.79 -311.8)" style="fill:#2e2e2e"/><path d="M321.49,422.65a42.52,42.52,0,0,1-30.19,12.16q-17.32,0-28.63-10.68T251.36,395.5q0-17.94,11.52-28.56a38.91,38.91,0,0,1,27.22-10.6q15.69,0,26.65,9.47t11,26v11.31H272.28a15.12,15.12,0,0,0,6.51,10.18,20.79,20.79,0,0,0,12.44,4q11.16,0,18.38-7.5Zm-20.36-45.1a16.1,16.1,0,0,0-10.68-3.68,19.15,19.15,0,0,0-11.52,3.82A14.61,14.61,0,0,0,272.85,388h33.37Q305.5,381.23,301.13,377.55Z" transform="translate(-31.79 -311.8)" style="fill:#2e2e2e"/><path d="M379.45,416q10.6,0,19.09-10.61l12.58,14.14q-14.7,15.27-31.81,15.27T350.4,424q-11.81-10.82-11.81-28.27t12-28.42a40.5,40.5,0,0,1,28.35-11,44.23,44.23,0,0,1,16.61,3.39,42.19,42.19,0,0,1,14.78,10l-11,14.42a25.17,25.17,0,0,0-9-6.78A25.42,25.42,0,0,0,379.74,375a20.62,20.62,0,0,0-14.35,5.45q-6,5.44-6,15.13t6,15.05A20.38,20.38,0,0,0,379.45,416Z" transform="translate(-31.79 -311.8)" style="fill:#2e2e2e"/><path d="M459.36,416.29a7,7,0,0,1-5.37-2.48,9.74,9.74,0,0,1-2.26-6.85V372.88h17.56l-6.67-15.27H451.73V338.17H430.38v19.44h-8.91v15.27h8.91V408q0,12.44,7.56,19.65a25.82,25.82,0,0,0,18.52,7.21q11,0,20.86-9.05l-7.92-14.84Q465.29,416.29,459.36,416.29Z" transform="translate(-31.79 -311.8)" style="fill:#2e2e2e"/><path d="M768.21,418c0,32.55-34.88,32.55-34.88,32.55H552.27c-25.12,0-34.88-20.93-34.88-20.93l-37.94-88.32s-7.11-20.52-24.74-20.52c-17.81,0-94.48.6-94.48.6" transform="translate(-31.79 -311.8)" style="fill:none;stroke:#2e2e2e;stroke-linecap:square;stroke-linejoin:round;stroke-width:18px"/><circle cx="578.07" cy="482.87" r="13.75" transform="translate(-121.05 520.35) rotate(-67.5)" style="fill:#2e2e2e"/><circle cx="711.39" cy="482.87" r="13.75" transform="translate(-99.95 -191.61) rotate(-9.22)" style="fill:#2e2e2e"/></svg>