<?xml version="1.0" encoding="UTF-8" standalone="no"?>
<svg
   xmlns:dc="http://purl.org/dc/elements/1.1/"
   xmlns:cc="http://creativecommons.org/ns#"
   xmlns:rdf="http://www.w3.org/1999/02/22-rdf-syntax-ns#"
   xmlns:svg="http://www.w3.org/2000/svg"
   xmlns="http://www.w3.org/2000/svg"
   viewBox="0 0 700 208.6565"
   height="208.65651"
   width="700"
   xml:space="preserve"
   id="svg833"
   version="1.1"><metadata
     id="metadata839"><rdf:RDF><cc:Work
         rdf:about=""><dc:format>image/svg+xml</dc:format><dc:type
           rdf:resource="http://purl.org/dc/dcmitype/StillImage" /><dc:title></dc:title></cc:Work></rdf:RDF></metadata><defs
     id="defs837" /><g
     transform="matrix(1.3333333,0,0,-1.3333333,-129.50453,1035.2102)"
     id="g841"><path
       d="m 558.84789,776.4077 h 63.28052 l -29.50379,-63.19477 h -63.28053 z"
       style="fill:#f26622;fill-opacity:1;fill-rule:nonzero;stroke:none;stroke-width:2.45007"
       id="path1085" /><g
       id="g11731"><path
         id="path1097"
         style="fill:#1b181b;fill-opacity:1;fill-rule:nonzero;stroke:none;stroke-width:2.45007"
         d="m 149.24149,669.09615 c -3.22675,-2.02376 -5.62293,-3.46196 -11.47615,-3.46196 -10.76073,0 -15.65843,7.40413 -15.65843,16.95207 0,10.86118 6.4486,16.59681 13.97768,16.59681 6.45594,0 8.84721,-2.62893 10.65047,-4.42484 l 1.31079,0.35526 c 0.59292,7.28652 0.83057,9.55774 1.90861,16.3567 l -0.59537,0.71052 c -5.50287,1.92086 -9.56264,3.3468 -16.73646,3.3468 -9.19268,0 -16.84426,-2.26142 -21.87427,-5.48816 -8.60221,-5.49307 -13.61996,-16.11169 -13.61996,-28.17341 0,-13.48766 6.56865,-33.17646 34.89641,-33.17646 6.69361,0 11.23114,1.30344 16.73646,2.85924 l 0.59782,0.71787 0.71542,16.23174 z" /><path
         id="path1101"
         style="fill:#1b181b;fill-opacity:1;fill-rule:evenodd;stroke:none;stroke-width:2.45007"
         d="m 195.46753,683.18653 c 0,-2.39372 0,-11.46635 -2.04581,-15.28847 -1.30099,-2.73918 -3.3321,-4.41258 -5.96838,-4.41258 -0.71787,0 -5.37547,0 -7.04887,6.79896 -0.84037,3.34435 -0.95798,6.80875 -0.95798,10.62597 0,10.74358 0.83303,19.8211 8.24451,19.8211 5.86792,0 7.77653,-6.68625 7.77653,-17.54498 m 24.74085,-1.08048 c 0,14.31823 -4.06712,21.01184 -8.25185,25.06916 -6.34079,6.21094 -15.41832,8.2396 -24.38069,8.2396 -5.38526,0 -18.0448,-0.60027 -25.93649,-9.78805 -5.61802,-6.56865 -6.93126,-15.52122 -6.93126,-24.11608 0,-8.70757 1.31324,-24.5914 17.20198,-30.32457 5.03735,-1.90371 11.59865,-2.49663 15.78093,-2.49663 10.76072,0 21.03879,2.98174 27.25952,11.69911 4.7752,6.91411 5.25786,17.41758 5.25786,21.71746" /><path
         id="path1105"
         style="fill:#1b181b;fill-opacity:1;fill-rule:nonzero;stroke:none;stroke-width:2.45007"
         d="m 253.79695,650.94918 c -0.71543,15.63393 -0.96288,23.0356 -0.96288,36.77317 0,8.95257 0.24745,48.58743 0.24745,56.57712 l -0.96042,1.07804 -24.73841,-4.30233 -0.72032,-0.72033 c 1.19074,-12.53213 1.31814,-13.2451 1.31814,-55.62159 0,-15.04101 -0.24256,-21.4847 -0.59782,-34.13444 l 0.83058,-0.84527 c 10.40546,0.48266 13.50236,0.48266 24.74575,0.36261 z" /><path
         id="path1109"
         style="fill:#1b181b;fill-opacity:1;fill-rule:nonzero;stroke:none;stroke-width:2.45007"
         d="m 264.43689,711.23547 c 0.83792,-8.60221 1.31569,-13.61261 1.31569,-27.57314 0,-10.98858 -0.35772,-21.96737 -0.72033,-32.95595 l 0.83548,-0.82812 c 10.40057,0.36016 13.62976,0.36016 24.26799,0.23765 l 0.83792,0.94818 -0.36506,20.89424 c -0.1176,1.91351 -0.1176,3.93727 -0.1176,5.84833 0,7.40167 0,14.68329 8.72961,14.68329 2.98419,0 4.41994,-0.95553 6.21339,-2.14626 l 1.19564,0.35771 c 1.90861,11.21399 2.38637,13.60771 5.01775,24.5914 l -0.82812,0.71297 c -1.448,0.245 -2.75879,0.36506 -4.18963,0.36506 -5.61802,0 -9.9228,-2.63138 -13.152,-7.52418 -1.19319,-1.79101 -2.03111,-3.69961 -2.86904,-5.49307 l 0.23766,11.93922 -0.83058,0.95797 c -11.6011,-2.51132 -14.34273,-2.86658 -24.8658,-4.18472 z" /><path
         id="path1113"
         style="fill:#1b181b;fill-opacity:1;fill-rule:nonzero;stroke:none;stroke-width:2.45007"
         d="m 355.25233,650.59858 0.83547,-0.84528 c 10.40057,0.36261 13.1422,0.36261 22.47454,0.36261 l 0.83792,0.83303 c -0.35771,8.59486 -0.48266,11.94411 -0.48266,24.59875 0,12.64238 0.12495,25.41707 0.24011,38.0766 l -0.96043,1.19074 c -10.28297,-0.71297 -12.78939,-0.84037 -23.18506,-1.08048 l -0.71542,-0.83058 0.71542,-43.68728 c -2.26632,-1.19073 -4.53999,-2.39127 -7.05131,-2.39127 -6.69606,0 -6.69606,7.03662 -6.69606,14.68575 0,3.09934 0.24011,16.70706 0.24011,19.45359 0,4.30478 -0.1176,8.47726 -0.1176,12.76979 l -0.95553,1.08048 -22.8298,-1.08048 -0.83547,-0.71297 c 0.60272,-11.81671 0.60272,-15.15616 0.48021,-28.04846 v -5.13535 c -0.1274,-12.64729 -0.1274,-19.21594 4.17983,-24.59385 2.50888,-3.0969 7.64913,-6.674 14.46524,-6.674 4.53999,0 10.39812,1.6685 14.94055,4.41503 1.54845,0.82813 3.10915,2.02866 4.53999,3.09934 z" /><path
         id="path1117"
         style="fill:#1b181b;fill-opacity:1;fill-rule:nonzero;stroke:none;stroke-width:2.45007"
         d="m 397.81159,619.91531 c 10.88078,0.35771 13.38966,0.35771 21.52391,0.35771 l 0.95553,0.71788 c 3.10179,13.1226 4.29498,17.30977 9.55529,33.89678 l 6.09823,18.14525 14.34029,40.59038 -0.71297,0.83058 -19.12283,-0.35281 -0.72278,-0.71542 c -3.58445,-14.08548 -4.41993,-17.54744 -9.43523,-34.74451 -4.54734,16.24399 -5.26031,19.45849 -8.96238,35.45993 l -0.96287,0.71297 c -11.23605,-0.83792 -13.86743,-0.95308 -25.57878,-1.07558 l -0.47532,-0.83548 c 3.22675,-7.63443 3.46196,-8.23225 7.52908,-19.6888 1.90861,-5.50041 4.06713,-11.10863 5.97083,-16.59925 3.22675,-9.07263 5.38772,-15.63638 9.92771,-29.4842 -4.66005,-12.53703 -5.85813,-15.27866 -10.51817,-26.25745 z" /><path
         id="path1121"
         style="fill:#1b181b;fill-opacity:1;fill-rule:nonzero;stroke:none;stroke-width:2.45007"
         d="m 492.54152,698.09989 c 1.80081,0 3.59181,-0.11761 5.51022,-0.11761 l 0.95308,0.95308 1.31569,14.33049 -0.96288,0.83547 c -5.36812,-0.47776 -7.04642,-0.47776 -11.34875,-0.47776 l 0.35281,22.32018 -1.07068,0.71542 c -9.92525,-2.98174 -13.02705,-3.81967 -22.23443,-6.09333 l -0.59291,-0.83058 v -15.63393 h -6.81366 l -0.83793,-0.83547 -0.72032,-14.56569 0.72032,-0.71788 7.65159,0.23521 -0.24501,-10.50347 c 0,-5.36566 -0.11515,-10.85383 -0.11515,-16.22439 0,-5.61802 0,-8.48216 0.95307,-11.70646 2.27612,-7.39432 7.66139,-11.09394 19.49035,-11.09394 5.73072,0 9.68269,0.70563 14.8107,1.78366 l 0.84772,0.82812 1.19809,14.69065 -0.96043,0.47532 c -1.91106,-0.71543 -3.94952,-1.30834 -6.10068,-1.30834 -2.26877,0 -4.53999,0.95062 -5.61313,2.86168 -1.08048,2.02621 -1.08048,6.68626 -1.08048,9.07263 l 0.36016,20.88933 z" /></g></g></svg>
